<!DOCTYPE svg PUBLIC "-//W3C//DTD SVG 1.1//EN" "http://www.w3.org/Graphics/SVG/1.1/DTD/svg11.dtd">
<!-- Uploaded to: SVG Repo, www.svgrepo.com, Transformed by: SVG Repo Mixer Tools -->
<svg width="800px" height="800px" viewBox="0 0 24 24" xmlns="http://www.w3.org/2000/svg" xmlns:xlink="http://www.w3.org/1999/xlink" fill="#000000">
<g id="SVGRepo_bgCarrier" stroke-width="0"/>
<g id="SVGRepo_tracerCarrier" stroke-linecap="round" stroke-linejoin="round"/>
<g id="SVGRepo_iconCarrier"> <defs> <path id="top-a" d="M2.29289322,0.292893219 C2.68341751,-0.0976310729 3.31658249,-0.0976310729 3.70710678,0.292893219 C4.09763107,0.683417511 4.09763107,1.31658249 3.70710678,1.70710678 L1.70710678,3.70710678 C1.31658249,4.09763107 0.683417511,4.09763107 0.292893219,3.70710678 C-0.0976310729,3.31658249 -0.0976310729,2.68341751 0.292893219,2.29289322 L2.29289322,0.292893219 Z"/> <path id="top-c" d="M3.41421356,4 L13.0014708,4 C13.5529433,4 14,4.44771525 14,5 C14,5.55228475 13.5529433,6 13.0014708,6 L3.41421356,6 L5.70710678,8.29289322 C6.09763107,8.68341751 6.09763107,9.31658249 5.70710678,9.70710678 C5.31658249,10.0976311 4.68341751,10.0976311 4.29289322,9.70710678 L0.292893219,5.70710678 C-0.0976310729,5.31658249 -0.0976310729,4.68341751 0.292893219,4.29289322 L4.29289322,0.292893219 C4.68341751,-0.0976310729 5.31658249,-0.0976310729 5.70710678,0.292893219 C6.09763107,0.683417511 6.09763107,1.31658249 5.70710678,1.70710678 L3.41421356,4 Z"/> </defs> <g fill="none" fill-rule="evenodd" transform="matrix(0 1 1 0 7 5)"> <g transform="translate(3 1)"> <mask id="top-b" fill="#ffffff"> <use xlink:href="#top-a"/> </mask> <use fill="#D8D8D8" fill-rule="nonzero" xlink:href="#top-a"/> <g fill="#dc143c" mask="url(#top-b)"> <rect width="24" height="24" transform="translate(-8 -8)"/> </g> </g> <mask id="top-d" fill="#ffffff"> <use xlink:href="#top-c"/> </mask> <use fill="#000000" fill-rule="nonzero" xlink:href="#top-c"/> <g fill="#0A1128" mask="url(#top-d)"> <rect width="24" height="24" transform="translate(-5 -7)"/> </g> </g> </g>
</svg>